<?xml version="1.0" standalone="no"?>
<!DOCTYPE svg PUBLIC "-//W3C//DTD SVG 20010904//EN"
 "http://www.w3.org/TR/2001/REC-SVG-20010904/DTD/svg10.dtd">
<svg version="1.0" xmlns="http://www.w3.org/2000/svg"
 width="802.000000pt" height="802.000000pt" viewBox="0 0 802.000000 802.000000"
 preserveAspectRatio="xMidYMid meet">
<metadata>
Created by potrace 1.11, written by Peter Selinger 2001-2013
</metadata>
<g transform="translate(0.000000,802.000000) scale(0.100000,-0.100000)"
fill="#000000" stroke="none">
<path d="M1863 5385 c-211 -38 -376 -136 -473 -281 -72 -108 -95 -190 -95
-334 0 -140 24 -228 88 -322 90 -131 199 -195 532 -308 235 -81 312 -117 367
-173 48 -49 63 -94 62 -187 0 -64 -4 -83 -29 -128 -107 -196 -407 -260 -645
-137 -46 24 -118 93 -149 142 l-26 42 -128 -105 c-70 -58 -127 -112 -127 -120
0 -9 37 -52 83 -98 94 -94 193 -149 337 -188 74 -20 107 -23 260 -22 147 0
188 4 255 23 345 94 530 351 495 686 -11 105 -32 165 -87 248 -87 131 -201
198 -517 306 -305 105 -376 146 -422 246 -28 60 -32 149 -8 217 44 130 196
212 394 212 145 0 265 -54 332 -149 18 -25 36 -45 41 -45 12 0 245 203 246
214 2 16 -126 133 -185 168 -152 93 -396 130 -601 93z"/>
<path d="M630 4280 l0 -1070 155 0 155 0 0 1070 0 1070 -155 0 -155 0 0 -1070z"/>
<path d="M3020 4280 l0 -1070 155 0 155 0 0 465 0 465 133 0 132 0 280 -465
280 -465 187 0 c119 0 188 4 188 10 0 7 152 10 436 10 345 0 435 3 432 13 -3
6 -97 258 -209 559 -145 389 -208 548 -219 548 -10 0 -57 -106 -152 -348 -75
-191 -174 -441 -219 -555 l-82 -208 -30 48 c-17 26 -79 127 -137 223 -59 96
-171 279 -250 405 -79 127 -145 237 -147 245 -3 11 13 20 59 33 206 60 347
193 404 382 25 82 25 276 0 360 -59 197 -201 321 -426 374 -125 29 -315 41
-662 41 l-308 0 0 -1070z m833 755 c83 -17 160 -58 198 -105 81 -97 77 -291
-7 -375 -85 -86 -191 -111 -497 -121 l-217 -7 0 311 0 312 228 0 c159 0 247
-5 295 -15z m1105 -982 c11 -32 77 -211 146 -398 69 -187 126 -343 126 -347 0
-5 -139 -8 -310 -8 -188 0 -310 4 -310 9 0 9 79 213 242 624 38 97 74 177 78
177 4 0 17 -26 28 -57z"/>
<path d="M5500 4281 l0 -1071 453 0 c490 0 566 6 716 56 190 63 370 183 478
318 78 98 164 270 193 385 70 277 42 579 -75 817 -132 270 -379 458 -704 536
-79 19 -125 21 -573 25 l-488 5 0 -1071z m975 750 c124 -26 195 -55 284 -115
91 -62 159 -143 211 -251 62 -131 75 -195 74 -390 -1 -141 -5 -183 -22 -248
-60 -219 -201 -379 -409 -462 -119 -48 -189 -57 -505 -62 l-298 -5 0 776 0
776 288 0 c242 0 301 -3 377 -19z"/>
</g>
</svg>
