<?xml version="1.0" standalone="no"?>
<!DOCTYPE svg PUBLIC "-//W3C//DTD SVG 20010904//EN"
 "http://www.w3.org/TR/2001/REC-SVG-20010904/DTD/svg10.dtd">
<svg version="1.0" xmlns="http://www.w3.org/2000/svg"
 width="709.000000pt" height="709.000000pt" viewBox="0 0 709.000000 709.000000"
 preserveAspectRatio="xMidYMid meet">
<metadata>
Created by potrace 1.11, written by Peter Selinger 2001-2013
</metadata>
<g transform="translate(0.000000,709.000000) scale(0.100000,-0.100000)"
fill="#000000" stroke="none">
<path d="M4134 4929 c-15 -24 -66 -485 -94 -854 -25 -329 -62 -685 -86 -824
-4 -24 -24 -53 -64 -95 -53 -56 -61 -70 -94 -173 -20 -62 -36 -121 -36 -130
-1 -16 -2 -16 -16 2 -44 59 -244 396 -240 404 4 5 21 13 39 16 17 4 65 22 105
41 201 92 304 294 272 535 -28 219 -167 357 -410 410 -83 18 -142 22 -462 26
l-368 5 0 -936 0 -936 140 0 140 0 0 405 0 405 114 0 114 0 227 -376 228 -377
-17 -26 c-9 -14 -30 -50 -47 -78 -57 -97 -61 -98 -309 -96 -118 1 -350 7 -515
13 -323 11 -902 24 -1837 41 -424 7 -593 7 -608 -1 -23 -12 -26 -33 -7 -48 8
-6 333 -16 907 -26 492 -9 1021 -21 1175 -26 1093 -36 1116 -36 1187 11 20 13
54 54 80 98 l45 76 157 3 c91 1 156 6 156 12 0 6 145 11 379 12 l379 3 -183
490 c-111 298 -188 490 -196 490 -12 0 -71 -145 -319 -777 -40 -104 -76 -188
-79 -188 -3 0 -44 62 -90 137 l-84 137 12 60 c7 34 28 108 47 166 30 94 39
110 84 155 29 28 56 58 61 68 18 33 69 482 99 872 17 215 39 460 50 545 11 85
20 161 20 168 0 35 22 0 64 -105 45 -111 151 -288 211 -353 27 -29 131 -234
166 -328 13 -35 38 -80 55 -100 17 -21 41 -57 54 -82 12 -25 42 -76 66 -113
l44 -68 0 -600 0 -600 443 3 c423 4 445 5 522 27 120 34 210 76 309 142 l89
60 71 -22 c39 -12 96 -32 127 -45 30 -13 87 -28 125 -35 38 -6 93 -20 123 -30
70 -24 117 -25 130 -1 20 37 -10 51 -214 96 -55 12 -110 28 -123 35 -13 7 -47
19 -75 27 -29 8 -64 20 -79 25 l-27 11 46 61 c264 359 239 914 -56 1230 -83
90 -241 190 -363 232 -138 46 -154 48 -610 52 l-438 5 0 -263 0 -262 -31 59
c-17 32 -42 71 -55 85 -14 14 -40 62 -59 107 -58 137 -145 304 -184 352 -76
93 -149 219 -202 348 -59 146 -112 222 -154 222 -13 0 -27 -5 -31 -11z m-744
-909 c182 -29 273 -146 242 -311 -13 -72 -45 -118 -105 -153 -78 -46 -147 -58
-364 -63 l-203 -6 0 272 0 271 183 0 c100 0 211 -5 247 -10z m2368 -19 c313
-92 469 -335 449 -699 -3 -59 -13 -134 -22 -167 -23 -89 -80 -196 -139 -259
l-52 -56 -55 19 c-151 55 -303 134 -366 192 -23 21 -51 39 -62 39 -11 0 -32
10 -48 23 -15 13 -56 42 -90 65 -34 23 -83 67 -110 98 -26 31 -67 78 -90 105
l-43 50 0 310 0 311 278 -5 c246 -4 285 -7 350 -26z m-444 -893 c33 -23 77
-54 96 -69 19 -15 46 -30 60 -34 14 -4 42 -23 62 -41 21 -18 61 -45 90 -60 29
-15 64 -34 78 -43 14 -10 64 -33 112 -52 49 -19 88 -37 88 -41 0 -11 -62 -37
-145 -61 -61 -18 -105 -21 -347 -25 l-278 -4 0 304 0 303 61 -68 c34 -37 89
-86 123 -109z m-930 25 c75 -201 226 -616 226 -624 0 -5 -115 -9 -269 -9
l-269 0 58 148 c31 81 89 228 127 327 39 99 74 190 77 203 12 36 23 26 50 -45z"/>
<path d="M1610 4310 c-263 -70 -420 -244 -436 -485 -16 -228 78 -391 281 -491
50 -24 175 -73 279 -108 273 -94 337 -140 355 -255 27 -168 -91 -301 -292
-333 -148 -23 -288 23 -382 124 -30 33 -55 64 -55 69 0 21 -30 2 -134 -84
-123 -101 -122 -93 -24 -189 69 -68 203 -137 318 -163 112 -26 301 -24 410 4
130 33 224 83 300 160 109 110 150 213 150 376 0 160 -45 271 -147 364 -71 66
-180 120 -378 186 -267 90 -345 138 -381 232 -20 52 -15 153 9 200 72 138 301
200 486 131 57 -22 145 -95 156 -129 4 -10 10 -19 13 -19 8 0 215 179 220 189
5 14 -65 86 -131 132 -112 78 -197 102 -387 106 -130 2 -167 0 -230 -17z"/>
<path d="M590 3355 l0 -935 135 0 135 0 0 935 0 935 -135 0 -135 0 0 -935z"/>
</g>
</svg>
